<svg xmlns="http://www.w3.org/2000/svg" viewBox="0 0 512 512" role="img" aria-label="Global Private Mesh icon">
  <defs>
    <linearGradient id="bg" x1="72" y1="64" x2="440" y2="448" gradientUnits="userSpaceOnUse">
      <stop offset="0" stop-color="#0a1f2e"/>
      <stop offset="0.48" stop-color="#143a57"/>
      <stop offset="1" stop-color="#0b6a75"/>
    </linearGradient>
    <linearGradient id="stroke" x1="108" y1="116" x2="404" y2="396" gradientUnits="userSpaceOnUse">
      <stop offset="0" stop-color="#d8fbff"/>
      <stop offset="1" stop-color="#8af5ff"/>
    </linearGradient>
    <filter id="glow" x="-30%" y="-30%" width="160%" height="160%">
      <feGaussianBlur stdDeviation="6" result="blur"/>
      <feColorMatrix in="blur" type="matrix" values="
        1 0 0 0 0
        0 1 0 0 0
        0 0 1 0 0
        0 0 0 0.35 0" result="soft"/>
      <feMerge>
        <feMergeNode in="soft"/>
        <feMergeNode in="SourceGraphic"/>
      </feMerge>
    </filter>
  </defs>

  <rect x="28" y="28" width="456" height="456" rx="112" fill="url(#bg)"/>
  <rect x="52" y="52" width="408" height="408" rx="96" fill="none" stroke="#ffffff" stroke-opacity="0.08" stroke-width="6"/>

  <g filter="url(#glow)" fill="none" stroke="url(#stroke)" stroke-linecap="round" stroke-linejoin="round">
    <path d="M164 192 L256 148 L348 192 L348 320 L256 364 L164 320 Z" stroke-width="18"/>
    <path d="M164 192 L256 256 L348 192" stroke-width="14" stroke-opacity="0.9"/>
    <path d="M164 320 L256 256 L348 320" stroke-width="14" stroke-opacity="0.9"/>
    <path d="M256 148 L256 256 L256 364" stroke-width="14" stroke-opacity="0.88"/>
    <circle cx="164" cy="192" r="18" fill="#d8fbff"/>
    <circle cx="348" cy="192" r="18" fill="#d8fbff"/>
    <circle cx="164" cy="320" r="18" fill="#d8fbff"/>
    <circle cx="348" cy="320" r="18" fill="#d8fbff"/>
    <circle cx="256" cy="256" r="24" fill="#ffffff"/>
  </g>

  <circle cx="256" cy="256" r="74" fill="none" stroke="#ffffff" stroke-opacity="0.18" stroke-width="12"/>
  <circle cx="256" cy="256" r="40" fill="#ffffff" fill-opacity="0.12" stroke="#ffffff" stroke-opacity="0.35" stroke-width="8"/>
</svg>
